<svg id="Layer_1" data-name="Layer 1" xmlns="http://www.w3.org/2000/svg" viewBox="0 0 687.47 131.97"><defs><style>.cls-1{fill:#a1a6a4;}.cls-2{fill:#8316cf;}</style></defs><polygon class="cls-1" points="0 85.05 13.92 19.33 84.2 19.33 82.22 28.68 25.55 28.68 21.47 47.67 55.97 47.67 54.18 56.51 19.68 56.51 15.51 75.7 72.18 75.7 70.29 85.05 0 85.05"/><polygon class="cls-1" points="137.98 85.05 102.59 37.13 92.44 85.05 79.52 85.05 93.44 19.33 107.76 19.33 141.85 68.34 152.29 19.33 165.32 19.33 151.4 85.05 137.98 85.05"/><polygon class="cls-1" points="181.81 56.61 175.84 85.05 162.22 85.05 176.14 19.33 245.63 19.33 243.65 28.68 187.77 28.68 183.8 47.47 219.89 47.47 217.9 56.61 181.81 56.61"/><path class="cls-1" d="M279.83,71.92H241.65L233.2,85.05H218.29l44.83-65.72h17.1l17,65.72H282.81Zm-32.31-9h30.22l-7.86-34.5Z"/><polygon class="cls-1" points="313.82 85.05 325.75 28.68 298.7 28.68 300.69 19.33 368 19.33 366.01 28.68 339.27 28.68 327.34 85.05 313.82 85.05"/><polygon class="cls-1" points="362.12 85.05 376.04 19.33 389.56 19.33 375.64 85.05 362.12 85.05"/><polygon class="cls-2" points="384.79 85.05 386.18 78.39 443.14 28.68 396.72 28.68 398.7 19.33 463.82 19.33 462.23 26.69 406.76 75.7 451.79 75.7 449.9 85.05 384.79 85.05"/><path class="cls-2" d="M516.8,71.92H478.62l-8.45,13.13H455.26L500.1,19.33h17.1l17,65.72H519.78Zm-32.31-9h30.22l-7.85-34.5Z"/><path class="cls-1" d="M651.27,29.71h-73.1l3-13.94h94.35c0-.17,0-.34,0-.51C675.52,2.72,666.15,0,644.08,0h-46.7C571.24,0,561.26,3.93,557,23.88L546,76a39.38,39.38,0,0,0-1.06,8.61c0,12.39,9.22,15.26,31.29,15.26h.06l-8.5,13.89,13.79-13.89h0Z"/><path class="cls-2" d="M687.47,16.74,672.86,31.45h0l-.14.13h0l-67.61,68.3h17.81c26.45,0,36.27-3.92,40.51-23.87L670,44.79Z"/><path class="cls-2" d="M383.66,105.09a108.8,108.8,0,0,0,143.2,0l-9.51-9.5a95.37,95.37,0,0,1-124.18,0Z"/></svg>