<?xml version="1.0" encoding="UTF-8" standalone="no"?>
<!-- Created with Inkscape (http://www.inkscape.org/) -->

<svg
   width="242.5238mm"
   height="46.55687mm"
   viewBox="0 0 242.5238 46.55687"
   version="1.1"
   id="svg5"
   xml:space="preserve"
   inkscape:version="1.2.2 (732a01da63, 2022-12-09)"
   sodipodi:docname="logo.svg"
   xmlns:inkscape="http://www.inkscape.org/namespaces/inkscape"
   xmlns:sodipodi="http://sodipodi.sourceforge.net/DTD/sodipodi-0.dtd"
   xmlns="http://www.w3.org/2000/svg"
   xmlns:svg="http://www.w3.org/2000/svg"><sodipodi:namedview
     id="namedview7"
     pagecolor="#ffffff"
     bordercolor="#666666"
     borderopacity="1.0"
     inkscape:showpageshadow="2"
     inkscape:pageopacity="0.0"
     inkscape:pagecheckerboard="0"
     inkscape:deskcolor="#d1d1d1"
     inkscape:document-units="mm"
     showgrid="false"
     inkscape:zoom="0.17906145"
     inkscape:cx="4822.3668"
     inkscape:cy="1331.945"
     inkscape:window-width="1920"
     inkscape:window-height="991"
     inkscape:window-x="-9"
     inkscape:window-y="-9"
     inkscape:window-maximized="1"
     inkscape:current-layer="svg5" /><defs
     id="defs2"><clipPath
       clipPathUnits="userSpaceOnUse"
       id="clipPath348"><path
         d="M 0,1080 H 1080 V 0 H 0 Z"
         id="path346" /></clipPath></defs><g
     id="g1638"
     transform="translate(-1071.2381,-167.22168)"><g
       id="g310"
       transform="matrix(0.35277776,0,0,-0.35277778,1071.2381,197.22427)"><path
         d="M 0,0 13.918,65.715 H 84.205 L 82.218,56.368 H 25.551 L 21.474,37.38 H 55.971 L 54.182,28.533 H 19.684 L 15.51,9.345 H 72.176 L 70.288,0 Z"
         style="fill:#000000;fill-opacity:1;fill-rule:nonzero;stroke:none"
         id="path312" /></g><g
       id="g314"
       transform="matrix(0.35277776,0,0,-0.35277778,1119.9135,197.22427)"><path
         d="M 0,0 -35.392,47.918 -45.532,0 h -12.925 l 13.919,65.715 h 14.317 L 3.877,16.702 14.316,65.715 H 27.339 L 13.421,0 Z"
         style="fill:#000000;fill-opacity:1;fill-rule:nonzero;stroke:none"
         id="path316" /></g><g
       id="g318"
       transform="matrix(0.35277776,0,0,-0.35277778,1135.3762,187.19364)"><path
         d="M 0,0 -5.966,-28.433 H -19.585 L -5.667,37.282 H 63.825 L 61.836,27.935 H 5.964 L 1.989,9.146 H 38.077 L 36.088,0 Z"
         style="fill:#000000;fill-opacity:1;fill-rule:nonzero;stroke:none"
         id="path320" /></g><g
       id="g322"
       transform="matrix(0.35277776,0,0,-0.35277778,1158.556,189.40326)"><path
         d="M 0,0 H 30.223 L 22.369,34.497 Z M 32.31,-9.048 H -5.865 L -14.316,-22.17 H -29.229 L 15.608,43.545 H 32.709 L 49.708,-22.17 H 35.294 Z"
         style="fill:#000000;fill-opacity:1;fill-rule:nonzero;stroke:none"
         id="path324" /></g><g
       id="g326"
       transform="matrix(0.35277776,0,0,-0.35277778,1181.9454,197.22427)"><path
         d="m 0,0 11.93,56.368 h -27.042 l 1.99,9.347 H 54.182 L 52.194,56.368 H 25.451 L 13.521,0 Z"
         style="fill:#000000;fill-opacity:1;fill-rule:nonzero;stroke:none"
         id="path328" /></g><g
       id="g330"
       transform="matrix(0.35277776,0,0,-0.35277778,1198.9868,197.22427)"><path
         d="M 0,0 13.918,65.715 H 27.439 L 13.521,0 Z"
         style="fill:#000000;fill-opacity:1;fill-rule:nonzero;stroke:none"
         id="path332" /></g><g
       id="g334"
       transform="matrix(0.35277776,0,0,-0.35277778,1206.9823,197.22427)"><path
         d="M 0,0 1.391,6.66 58.357,56.368 H 11.93 l 1.988,9.347 H 79.035 L 77.446,58.358 21.971,9.345 H 67.007 L 65.117,0 Z"
         style="fill:#000000;fill-opacity:1;fill-rule:nonzero;stroke:none"
         id="path336" /></g><g
       id="g338"
       transform="matrix(0.35277776,0,0,-0.35277778,1242.1551,189.40326)"><path
         d="M 0,0 H 30.223 L 22.369,34.497 Z M 32.31,-9.048 H -5.865 L -14.316,-22.17 H -29.229 L 15.608,43.545 H 32.709 L 49.708,-22.17 H 35.294 Z"
         style="fill:#000000;fill-opacity:1;fill-rule:nonzero;stroke:none"
         id="path340" /></g><g
       id="g342"
       transform="matrix(0.35277776,0,0,-0.35277778,1002,381.00001)"><g
         id="g344"
         clip-path="url(#clipPath348)"><g
           id="g350"
           transform="translate(847.5353,576.2778)"><path
             d="m 0,0 h -73.099 l 2.967,13.938 h 94.357 c 0.003,0.167 0.02,0.341 0.02,0.507 0,12.543 -9.368,15.263 -31.434,15.263 h -46.697 c -26.145,0 -36.12,-3.928 -40.352,-23.877 l -11.032,-52.138 c -0.754,-3.325 -1.058,-6.196 -1.058,-8.616 0,-12.391 9.22,-15.263 31.283,-15.263 h 0.065 l -8.498,-13.884 13.786,13.884 h 0.002 z"
             style="fill:#000000;fill-opacity:1;fill-rule:nonzero;stroke:none"
             id="path352" /></g><g
           id="g354"
           transform="translate(883.7346,589.2464)"><path
             d="m 0,0 -14.614,-14.711 v 10e-4 l -0.131,-0.133 -0.009,-0.009 -67.604,-68.301 h 17.813 c 26.446,0 36.269,3.927 40.502,23.877 l 6.606,31.226 z"
             style="fill:#000000;fill-opacity:1;fill-rule:nonzero;stroke:none"
             id="path356" /></g><g
           id="g358"
           transform="translate(579.9238,500.8936)"><path
             d="m 0,0 c 19.787,-17.384 44.948,-26.88 71.602,-26.88 26.652,0 51.814,9.496 71.602,26.88 l -9.508,9.507 C 116.45,-5.366 94.662,-13.478 71.602,-13.478 c -23.061,0 -44.849,8.112 -62.094,22.985 z"
             style="fill:#000000;fill-opacity:1;fill-rule:nonzero;stroke:none"
             id="path360" /></g></g></g></g></svg>
